<svg width="275" height="275" viewBox="0 0 500 500" version="1.1" xmlns="http://www.w3.org/2000/svg"><defs><linearGradient x1="50.0000231%" y1="86.8497029%" x2="50.0000231%" y2="-0.582469222%" id="linearGradient-1"><stop stop-color="#1E43A0" offset="0%"></stop><stop stop-color="#0090FF" offset="100%"></stop></linearGradient><linearGradient x1="50.0000221%" y1="99.9998802%" x2="50.0000221%" y2="11.5417589%" id="linearGradient-2"><stop stop-color="#00E5FF" offset="0%"></stop><stop stop-color="#0090FF" offset="100%"></stop></linearGradient></defs><g transform="translate(23, 23)" stroke="none" stroke-width="1" fill="none" fill-rule="evenodd"><path d="M226.598,81.329 C146.366,81.329 81.327,146.366 81.327,226.598 C81.327,237.199 82.473,247.533 84.628,257.49 L36.841,222.098 C20.85,210.257 9.979,191.681 9.979,170.266 C9.979,163.046 11.188,156.107 13.413,149.64 C13.52,149.348 13.617,149.047 13.727,148.752 L13.763,148.65 C45.541,61.903 128.84,2.84217094e-14 226.598,2.84217094e-14 C324.356,2.84217094e-14 407.655,61.904 439.433,148.65 L439.469,148.752 C439.576,149.047 439.675,149.348 439.783,149.64 C442.004,156.107 443.214,163.046 443.214,170.266 C443.214,191.681 432.343,210.257 416.354,222.098 L368.566,257.49 C370.723,247.533 371.869,237.199 371.869,226.598 C371.869,146.367 306.83,81.329 226.598,81.329 Z" fill="url(#linearGradient-1)"></path><path d="M226.598,453.196 C101.449,453.196 0,351.745 0,226.599 C0,218.588 0.422,210.676 1.232,202.878 C6.55,214.636 14.658,224.865 24.711,232.719 C24.838,232.815 24.962,232.912 25.086,233.008 C25.945,233.67 26.816,234.315 27.701,234.946 L200.56,363.225 C200.637,363.28 200.704,363.33 200.775,363.383 C207.992,368.709 216.907,371.862 226.56,371.869 C226.585,371.869 226.607,371.869 226.632,371.869 C236.285,371.863 245.206,368.709 252.42,363.383 C252.491,363.33 252.561,363.279 252.635,363.225 L425.496,234.946 C426.381,234.315 427.252,233.671 428.108,233.008 C428.235,232.912 428.359,232.815 428.483,232.719 C438.536,224.865 446.643,214.636 451.964,202.878 C452.775,210.676 453.195,218.588 453.195,226.599 C453.195,351.744 351.745,453.196 226.598,453.196 Z" fill="url(#linearGradient-2)"></path></g></svg>